<svg width="39" height="38" viewBox="0 0 39 38" fill="none" xmlns="http://www.w3.org/2000/svg">
<g filter="url(#filter0_d_477_8631)">
<path d="M34.524 5.99854C33.3355 6.69304 30.9507 7.63954 29.5488 7.91254C29.5077 7.92304 29.4741 7.93653 29.4345 7.94703C28.1957 6.74403 26.4981 5.99854 24.6193 5.99854C20.8326 5.99854 17.7621 9.02103 17.7621 12.7485C17.7621 12.945 17.7454 13.3065 17.7621 13.4985C12.6528 13.4985 8.76404 10.8645 5.97547 7.49854C5.67223 8.24854 5.53966 9.43354 5.53966 10.5465C5.53966 12.648 7.20823 14.712 9.80633 15.9915C9.32785 16.113 8.80061 16.2 8.25204 16.2C7.36671 16.2 6.42957 15.9705 5.57166 15.2745C5.57166 15.3 5.57166 15.324 5.57166 15.351C5.57166 18.288 8.73814 20.2875 11.5541 20.844C10.9827 21.1755 9.83071 21.2085 9.26842 21.2085C8.87223 21.2085 7.47033 21.03 7.09547 20.961C7.87871 23.3685 10.7039 24.7215 13.3964 24.7695C11.2905 26.3955 9.82919 26.9985 5.5168 26.9985H4.04785C6.77242 28.7175 10.2421 30 13.7195 30C25.0414 30 31.4764 21.5055 31.4764 13.4985C31.4764 13.3695 31.4734 13.0995 31.4688 12.828C31.4688 12.801 31.4764 12.7755 31.4764 12.7485C31.4764 12.708 31.4642 12.669 31.4642 12.6285C31.4597 12.4245 31.4551 12.234 31.4505 12.135C32.6543 11.28 33.6981 10.2135 34.524 8.99854C33.4193 9.48154 32.2338 9.80554 30.9888 9.95254C32.2597 9.20254 34.0654 7.41454 34.524 5.99854Z" fill="#655D8A"/>
</g>
<defs>
<filter id="filter0_d_477_8631" x="-3" y="0" width="44.5713" height="44" filterUnits="userSpaceOnUse" color-interpolation-filters="sRGB">
<feFlood flood-opacity="0" result="BackgroundImageFix"/>
<feColorMatrix in="SourceAlpha" type="matrix" values="0 0 0 0 0 0 0 0 0 0 0 0 0 0 0 0 0 0 127 0" result="hardAlpha"/>
<feOffset dy="4"/>
<feGaussianBlur stdDeviation="2"/>
<feComposite in2="hardAlpha" operator="out"/>
<feColorMatrix type="matrix" values="0 0 0 0 0 0 0 0 0 0 0 0 0 0 0 0 0 0 0.25 0"/>
<feBlend mode="normal" in2="BackgroundImageFix" result="effect1_dropShadow_477_8631"/>
<feBlend mode="normal" in="SourceGraphic" in2="effect1_dropShadow_477_8631" result="shape"/>
</filter>
</defs>
</svg>
