<svg width="150" height="197" viewBox="0 0 150 197" fill="none" xmlns="http://www.w3.org/2000/svg">
<path d="M80.648 0C54.4613 0 33.2305 20.9575 33.2305 46.7789C33.2305 56.1336 36.0248 64.867 40.8391 72.1844C44.8096 78.228 50.1382 83.2999 56.435 86.9814C63.5292 91.1501 71.7938 93.535 80.648 93.535C89.479 93.535 97.7465 91.1501 104.815 87.0042C111.132 83.3227 116.486 78.2508 120.457 72.1815C125.294 64.8642 128.089 56.1336 128.089 46.7761C128.089 20.9575 106.858 0 80.648 0ZM80.648 72.6944C72.3342 72.6944 64.8874 68.8505 60.0731 62.8753C56.5043 58.453 54.3659 52.871 54.3659 46.7789C54.3659 32.4891 66.156 20.8407 80.648 20.8407C95.1399 20.8407 106.953 32.4891 106.953 46.7789C106.953 52.8453 104.815 58.4273 101.246 62.8269C96.4548 68.8505 88.9848 72.6944 80.648 72.6944Z" fill="#655D8A"/>
<path d="M149.032 139.55C143.495 171.828 114.933 196.499 80.6468 196.499C58.7802 196.499 38.6301 186.634 25.3836 169.426C21.861 164.841 22.7771 158.311 27.4267 154.814C32.0762 151.341 38.6995 152.244 42.2221 156.829C51.4287 168.779 65.4497 175.658 80.6439 175.658C107.229 175.658 128.862 154.33 128.862 128.112C128.862 110.583 119.184 95.2273 104.811 87.0067C97.6932 82.932 89.4517 80.5927 80.6439 80.5927C71.9545 80.5927 63.6407 82.838 56.4308 86.9839C50.8652 90.1553 45.9325 94.4864 41.9649 99.7664C38.4654 104.374 31.8422 105.348 27.1695 101.898C22.4737 98.4699 21.5085 91.9391 25.008 87.3315C29.4466 81.4275 34.8244 76.3299 40.8379 72.1869C46.7098 68.135 53.2146 64.9835 60.0719 62.8778C64.8862 68.853 72.333 72.6969 80.6468 72.6969C88.9836 72.6969 96.4535 68.853 101.245 62.8322C108.174 64.9636 114.656 68.135 120.456 72.1869C138.305 84.5533 150 105.004 150 128.115C150.003 132.008 149.671 135.829 149.032 139.55Z" fill="#655D8A"/>
<path d="M22.837 115.533C24.25 114.191 25.588 112.549 27.2669 111.393C34.2832 106.56 44.0736 110.355 45.4953 118.57C46.5501 124.651 45.007 130.244 40.4614 134.672C38.1236 136.949 31.8847 142.474 27.423 146.406C24.8366 148.686 20.9211 148.623 18.3954 146.281C11.6422 140.012 1.84888 130.441 1.05999 127.871C0.0139049 124.454 -0.451342 120.967 0.571621 117.476C2.91808 109.472 13.0639 106.608 19.5687 112.119C20.8228 113.182 21.8545 114.498 22.837 115.533Z" fill="#D885A3"/>
</svg>
