<svg width="26" height="33" viewBox="0 0 26 33" fill="none" xmlns="http://www.w3.org/2000/svg">
<path d="M19.1702 0.303711C17.567 0.380511 15.5873 1.40072 14.4564 2.83496C13.4196 4.07144 12.533 6.07952 12.7577 7.96496C14.5682 8.1224 16.3781 7.0208 17.5089 5.62496C18.6225 4.19072 19.3583 2.26787 19.1702 0.303711ZM18.9602 8.93996C16.3202 8.93996 14.4328 10.38 13.2002 10.38C11.9483 10.38 10.0802 8.95871 7.92019 8.95871C5.28019 8.95871 2.69464 10.6159 1.33144 13.0312C-1.46984 17.86 0.604236 25.0085 3.31144 28.9387C4.63816 30.8856 6.24019 32.94 8.40019 32.94C10.3797 32.8651 11.0498 31.74 13.4402 31.74C15.8479 31.74 16.5602 32.94 18.7202 32.94C20.8802 32.94 22.1879 30.9606 23.5127 29.0137C25.0256 26.8057 25.6437 24.6532 25.6802 24.54C25.6437 24.5035 21.4998 22.9123 21.4614 18.12C21.425 14.1148 24.7279 12.2051 24.8777 12.0937C23.0095 9.32507 19.9202 8.93996 19.2002 8.93996H18.9602Z" fill="#655D8A"/>
</svg>
